<?xml version="1.0" standalone="no"?>
<!DOCTYPE svg PUBLIC "-//W3C//DTD SVG 20010904//EN"
 "http://www.w3.org/TR/2001/REC-SVG-20010904/DTD/svg10.dtd">
<svg version="1.0" xmlns="http://www.w3.org/2000/svg"
 width="433.000000pt" height="169.000000pt" viewBox="0 0 433.000000 169.000000"
 preserveAspectRatio="xMidYMid meet">

<g transform="translate(0.000000,169.000000) scale(0.100000,-0.100000)"
fill="#000000" stroke="none">
<path d="M928 1600 c-118 -21 -235 -107 -285 -209 -25 -50 -28 -67 -28 -156 0
-89 3 -106 28 -157 34 -70 90 -121 176 -162 60 -28 75 -31 166 -31 88 0 107 3
157 27 215 100 294 363 163 540 -86 116 -233 174 -377 148z m157 -54 c65 -31
117 -86 152 -161 24 -53 28 -71 27 -155 0 -125 -25 -191 -95 -254 -106 -95
-255 -83 -360 31 -66 71 -93 145 -93 258 -1 76 4 99 25 145 49 105 128 159
234 160 43 0 75 -7 110 -24z"/>
<path d="M96 1582 c-3 -5 12 -16 34 -25 l40 -15 0 -295 0 -296 -26 -20 c-15
-12 -33 -21 -40 -21 -8 0 -14 -4 -14 -10 0 -6 53 -10 140 -10 132 0 175 9 113
25 -16 3 -38 13 -50 21 -22 14 -23 20 -23 160 l0 145 123 -3 122 -3 15 -32 c8
-18 18 -33 23 -33 4 0 7 43 7 95 0 52 -3 95 -7 95 -5 0 -15 -15 -23 -33 l-15
-32 -122 -3 -123 -3 0 126 0 125 113 0 c125 0 147 -8 172 -63 14 -31 14 -30
12 38 l-2 70 -232 3 c-127 1 -234 -2 -237 -6z"/>
<path d="M1380 1582 c0 -5 18 -14 39 -21 30 -9 42 -19 50 -43 16 -46 15 -535
-2 -568 -8 -16 -26 -28 -50 -34 -72 -18 -36 -26 118 -26 151 0 200 11 113 25
-74 12 -78 20 -78 167 l0 128 48 0 c26 0 56 -3 67 -6 12 -3 52 -56 98 -130 77
-121 114 -162 169 -183 29 -11 278 -3 278 9 0 4 -16 11 -35 14 -19 4 -39 15
-44 24 -10 18 3 331 17 440 l7 53 121 -268 c67 -147 127 -268 134 -268 6 0 66
118 133 262 66 145 123 261 125 258 3 -3 11 -109 19 -237 l13 -233 -21 -17
c-12 -10 -32 -18 -45 -18 -13 0 -24 -4 -24 -10 0 -6 140 -10 399 -10 l398 0 6
68 c9 91 9 114 -2 108 -5 -3 -12 -21 -15 -40 -4 -18 -18 -46 -33 -60 -25 -25
-29 -26 -148 -26 -103 0 -124 3 -129 16 -3 9 -6 74 -6 146 l0 130 106 -4 c114
-4 134 -13 134 -64 0 -13 5 -26 10 -29 6 -4 10 33 10 104 0 67 -4 111 -10 111
-5 0 -10 -9 -10 -20 0 -11 -9 -29 -20 -40 -17 -17 -33 -20 -120 -20 l-100 0 0
135 0 135 114 0 c110 0 115 -1 134 -25 11 -14 23 -41 26 -60 4 -19 11 -35 17
-35 8 0 3 125 -7 158 -4 15 -484 18 -484 2 0 -5 12 -12 28 -16 15 -4 37 -13
50 -20 l22 -14 0 -294 c0 -337 5 -321 -91 -321 -92 0 -90 -3 -105 257 -7 123
-13 256 -13 296 l-1 73 35 15 c20 8 33 19 30 24 -9 15 -141 12 -153 -2 -5 -7
-62 -128 -125 -268 -64 -140 -119 -255 -123 -255 -5 0 -59 113 -121 250 -61
138 -117 258 -122 268 -9 13 -25 17 -79 17 -38 0 -71 -3 -75 -6 -3 -4 8 -16
26 -28 32 -22 32 -23 31 -102 0 -43 -7 -173 -14 -288 -12 -197 -14 -211 -36
-233 -13 -13 -30 -23 -38 -23 -29 0 -75 55 -155 187 l-80 131 39 26 c51 34 74
78 73 141 0 57 -18 97 -60 137 -54 51 -86 58 -283 58 -99 0 -180 -4 -180 -8z
m352 -39 c41 -23 78 -94 78 -148 0 -22 -9 -59 -20 -83 -25 -55 -85 -85 -163
-80 l-52 3 -3 155 c-1 85 0 161 3 168 8 20 114 10 157 -15z"/>
<path d="M3452 1578 c3 -7 19 -16 38 -19 18 -4 37 -13 42 -21 4 -7 7 -139 6
-293 -3 -249 -5 -284 -21 -308 -11 -17 -26 -27 -42 -27 -14 0 -25 -4 -25 -10
0 -6 50 -10 130 -10 126 0 170 11 92 24 -73 11 -73 11 -70 300 l3 256 241
-267 c309 -343 292 -325 304 -318 6 4 10 122 10 319 0 347 -3 332 68 357 57
20 23 29 -104 29 -120 0 -160 -11 -89 -24 65 -12 70 -31 73 -278 2 -126 0
-218 -5 -218 -5 0 -115 117 -244 260 l-234 260 -88 0 c-66 0 -88 -3 -85 -12z"/>
<path d="M968 743 c-69 -4 -97 -23 -34 -23 22 0 36 -6 40 -16 3 -9 6 -96 6
-194 0 -173 -1 -179 -22 -194 -12 -9 -35 -16 -50 -16 -16 0 -28 -5 -28 -11 0
-7 54 -10 173 -7 169 3 175 4 214 30 76 50 82 139 14 201 l-38 35 28 27 c39
36 40 91 3 128 -42 42 -102 50 -306 40z m219 -45 c7 -8 16 -31 20 -50 8 -53
-29 -88 -92 -88 l-45 0 0 74 c0 50 4 76 13 80 20 9 89 -2 104 -16z m15 -207
c42 -47 37 -131 -11 -168 -26 -20 -70 -15 -96 12 -22 21 -25 33 -25 103 0 43
3 82 8 86 4 4 27 6 52 3 33 -4 51 -13 72 -36z"/>
<path d="M2247 743 c-11 -11 -8 -58 5 -71 33 -33 91 16 68 57 -10 20 -58 30
-73 14z"/>
<path d="M423 690 c-29 -17 -33 -25 -33 -61 0 -25 8 -52 20 -70 l21 -28 -41
-21 c-101 -51 -104 -180 -6 -227 45 -21 92 -11 157 34 l53 36 15 -24 c34 -50
51 -62 89 -55 20 3 41 11 48 18 11 11 7 13 -23 13 -33 0 -40 5 -66 47 l-29 47
49 78 c34 54 60 83 84 95 l34 17 -65 0 c-49 0 -61 -2 -47 -10 25 -14 22 -25
-24 -96 l-41 -63 -58 62 c-56 62 -57 63 -36 78 34 23 45 43 46 78 0 26 -6 36
-32 52 -18 11 -44 20 -58 20 -14 0 -40 -9 -57 -20z m91 -16 c30 -30 8 -114
-30 -114 -16 0 -54 57 -54 82 0 22 27 48 50 48 10 0 26 -7 34 -16z m-7 -206
c77 -80 80 -91 38 -123 -19 -15 -52 -29 -74 -32 -35 -5 -44 -2 -71 25 -34 35
-39 75 -15 122 13 26 50 60 65 60 3 0 29 -24 57 -52z"/>
<path d="M2058 587 c-51 -46 -57 -57 -33 -57 12 0 15 -18 15 -102 1 -65 5
-109 13 -119 20 -26 57 -41 85 -34 31 8 72 43 72 62 0 16 -2 16 -35 -1 -53
-28 -65 -6 -65 118 l0 79 59 -6 c33 -3 64 -8 70 -12 7 -4 11 -44 11 -101 0
-91 -1 -95 -25 -106 -44 -20 -27 -28 60 -28 50 0 85 4 85 10 0 6 -4 10 -9 10
-5 0 -17 7 -25 16 -13 12 -16 41 -16 145 l0 129 -46 -22 c-43 -21 -46 -22 -55
-5 -7 12 -23 17 -56 17 -43 0 -45 1 -41 25 7 36 -10 31 -64 -18z"/>
<path d="M3653 572 c-58 -29 -64 -37 -33 -45 19 -5 21 -12 18 -109 -3 -96 -5
-104 -25 -113 -42 -18 -24 -25 67 -25 91 0 109 7 68 25 -21 9 -23 17 -26 107
l-3 97 37 16 c81 34 104 9 104 -112 0 -61 -4 -86 -16 -97 -8 -9 -20 -16 -25
-16 -5 0 -9 -4 -9 -10 0 -6 38 -10 95 -10 52 0 95 3 95 8 0 4 -15 14 -33 22
l-32 15 3 71 c4 78 -10 144 -34 169 -22 21 -87 19 -134 -5 -50 -26 -50 -26
-50 10 0 36 -1 36 -67 2z"/>
<path d="M1430 568 c-25 -13 -55 -39 -68 -58 -20 -29 -23 -44 -20 -94 4 -54 8
-62 45 -97 93 -87 251 -47 283 72 21 77 -19 149 -102 183 -51 22 -86 20 -138
-6z m102 -19 c48 -26 77 -168 42 -217 -63 -90 -162 -7 -152 128 6 87 49 122
110 89z"/>
<path d="M1710 570 c-47 -16 -52 -19 -32 -25 21 -7 22 -12 22 -120 0 -97 3
-114 19 -129 31 -28 82 -31 136 -7 57 25 53 25 57 2 3 -18 5 -18 56 2 28 11
52 23 52 26 0 3 -10 11 -22 16 -22 9 -23 16 -26 133 -2 102 -5 123 -17 119 -7
-3 -33 -11 -57 -18 -42 -11 -43 -11 -20 -26 20 -14 22 -23 22 -109 l0 -93 -30
-16 c-26 -13 -35 -14 -58 -3 l-27 13 -3 128 c-1 70 -6 127 -10 126 -4 -1 -32
-9 -62 -19z"/>
<path d="M2474 571 c-76 -35 -115 -113 -94 -190 21 -81 92 -127 154 -102 70
28 66 32 66 -62 0 -91 -11 -117 -50 -117 -10 0 -22 -4 -25 -10 -4 -6 30 -10
94 -10 56 0 101 2 101 5 0 3 -11 10 -25 15 l-25 10 0 240 c0 240 0 241 -21
230 -15 -8 -29 -8 -51 -1 -44 16 -77 13 -124 -8z m113 -51 c7 -19 12 -67 12
-107 1 -63 -2 -74 -21 -87 -34 -24 -66 -19 -99 13 -24 25 -29 38 -29 80 0 93
33 144 89 139 31 -3 38 -8 48 -38z"/>
<path d="M2735 571 c-47 -17 -49 -18 -27 -30 21 -11 22 -18 22 -127 l0 -115
35 -15 c46 -19 68 -18 115 6 48 25 50 25 50 0 0 -11 2 -20 4 -20 2 0 30 12 62
27 53 24 57 27 34 32 -25 7 -25 8 -28 134 l-3 127 -27 -6 c-15 -4 -43 -12 -62
-19 -34 -12 -34 -12 -12 -24 20 -11 22 -19 22 -105 0 -104 -8 -119 -62 -119
-50 0 -58 21 -58 155 0 65 -3 118 -7 117 -5 0 -30 -8 -58 -18z"/>
<path d="M3124 570 c-109 -55 -115 -234 -10 -284 19 -9 44 -16 55 -16 48 0
148 60 135 81 -2 5 -19 -1 -37 -11 -73 -45 -145 -11 -154 73 l-6 47 102 0 101
0 0 25 c0 15 -14 40 -33 61 -42 46 -94 54 -153 24z m102 -45 c8 -13 13 -29 9
-35 -7 -11 -107 -14 -118 -4 -7 8 11 46 27 56 24 16 66 8 82 -17z"/>
<path d="M3404 570 c-109 -55 -115 -234 -10 -284 19 -9 44 -16 55 -16 48 0
148 60 135 81 -2 5 -19 -1 -37 -11 -73 -45 -145 -11 -154 73 l-6 47 102 0 101
0 0 25 c0 15 -14 40 -33 61 -42 46 -94 54 -153 24z m102 -45 c8 -13 13 -29 9
-35 -7 -11 -107 -14 -118 -4 -7 8 11 46 27 56 24 16 66 8 82 -17z"/>
</g>
</svg>
